<?xml version="1.0" standalone="no"?>
<!DOCTYPE svg PUBLIC "-//W3C//DTD SVG 20010904//EN"
 "http://www.w3.org/TR/2001/REC-SVG-20010904/DTD/svg10.dtd">
<svg version="1.0" xmlns="http://www.w3.org/2000/svg"
 width="1024.000000pt" height="1024.000000pt" viewBox="0 0 1024.000000 1024.000000"
 preserveAspectRatio="xMidYMid meet">

<g transform="translate(0.000000,1024.000000) scale(0.100000,-0.100000)"
fill="#000000" stroke="none">
<path d="M0 5120 l0 -5120 5120 0 5120 0 0 5120 0 5120 -5120 0 -5120 0 0
-5120z m4530 1220 l0 -240 -540 2 -540 3 0 -297 0 -298 465 0 465 0 0 -230 0
-230 -465 0 -465 0 0 -500 0 -500 -257 2 -258 3 -3 1250 c-1 688 0 1256 3
1263 3 9 173 12 800 12 l795 0 0 -240z m1365 219 c11 -11 173 -253 361 -537
188 -284 425 -642 526 -794 l183 -277 3 814 2 815 240 0 240 0 0 -1265 0
-1265 -222 0 c-123 0 -228 4 -234 8 -6 4 -168 246 -359 537 -191 292 -427 651
-524 799 l-176 269 -3 -806 -2 -807 -235 0 -235 0 0 1265 0 1265 208 0 c198 0
210 -1 227 -21z m-3645 -478 c70 -37 103 -134 67 -198 -12 -22 -112 -118 -494
-476 -106 -99 -193 -183 -193 -186 0 -11 296 -301 480 -470 96 -89 185 -179
197 -199 31 -50 31 -118 1 -162 -27 -38 -81 -70 -121 -70 -70 0 -73 2 -638
537 -297 281 -307 294 -296 376 5 37 20 55 149 182 307 301 677 649 709 666
44 24 96 24 139 0z m5873 5 c18 -7 92 -69 164 -137 406 -385 682 -654 692
-676 15 -33 14 -99 -3 -131 -28 -53 -773 -764 -838 -799 -50 -28 -80 -28 -134
-4 -79 36 -107 132 -62 212 11 21 132 141 267 268 135 126 284 268 330 315
l84 84 -84 79 c-470 441 -594 561 -605 590 -32 77 -5 157 66 194 41 22 79 24
123 5z m-3202 -1528 c139 -71 194 -227 128 -365 -44 -91 -159 -163 -260 -163
-57 0 -143 36 -186 78 -54 53 -76 104 -81 188 -5 93 21 157 90 219 92 83 200
98 309 43z"/>
</g>
</svg>
